<?xml version="1.0" standalone="no"?>
<!DOCTYPE svg PUBLIC "-//W3C//DTD SVG 1.1//EN" "http://www.w3.org/Graphics/SVG/1.1/DTD/svg11.dtd">
<svg width="93mm" height="125mm" viewBox="0 -125 93 125" xmlns="http://www.w3.org/2000/svg" version="1.1">
<title>OpenSCAD Model</title>
<path d="
M 89.5312,-0.144531 L 89.7656,-0.170898 L 89.9971,-0.217773 L 90.2227,-0.28125 L 90.4443,-0.362305 L 90.6572,-0.461914
 L 90.8633,-0.577148 L 91.0596,-0.707031 L 91.2441,-0.852539 L 91.418,-1.0127 L 91.5771,-1.18652 L 91.7236,-1.37109
 L 91.8535,-1.56641 L 91.9688,-1.77344 L 92.0684,-1.98535 L 92.1494,-2.20801 L 92.2129,-2.43359 L 92.2598,-2.66504
 L 92.2861,-2.89941 L 92.2969,-3.13477 L 92.2969,-121.436 L 92.2861,-121.671 L 92.2598,-121.906 L 92.2129,-122.136
 L 92.1494,-122.363 L 92.0684,-122.583 L 91.9688,-122.797 L 91.8535,-123.004 L 91.7236,-123.2 L 91.5771,-123.384
 L 91.418,-123.558 L 91.2441,-123.717 L 91.0596,-123.863 L 90.8633,-123.993 L 90.6572,-124.109 L 90.4443,-124.207
 L 90.2227,-124.289 L 89.9971,-124.353 L 89.7656,-124.4 L 89.5312,-124.426 L 89.2969,-124.435 L 3.09473,-124.435
 L 2.85938,-124.426 L 2.625,-124.4 L 2.39551,-124.353 L 2.16797,-124.289 L 1.94727,-124.207 L 1.7334,-124.109
 L 1.52734,-123.993 L 1.33105,-123.863 L 1.14648,-123.717 L 0.972656,-123.558 L 0.813477,-123.384 L 0.666992,-123.2
 L 0.537109,-123.004 L 0.421875,-122.797 L 0.324219,-122.583 L 0.241211,-122.363 L 0.177734,-122.136 L 0.130859,-121.906
 L 0.104492,-121.671 L 0.0947266,-121.436 L 0.0947266,-3.13477 L 0.104492,-2.89941 L 0.130859,-2.66504 L 0.177734,-2.43359
 L 0.241211,-2.20801 L 0.324219,-1.98535 L 0.421875,-1.77344 L 0.537109,-1.56641 L 0.666992,-1.37109 L 0.813477,-1.18652
 L 0.972656,-1.0127 L 1.14648,-0.852539 L 1.33105,-0.707031 L 1.52734,-0.577148 L 1.7334,-0.461914 L 1.94727,-0.362305
 L 2.16797,-0.28125 L 2.39551,-0.217773 L 2.625,-0.170898 L 2.85938,-0.144531 L 3.09473,-0.134766 L 89.2959,-0.134766
 z
M 3.63086,-119.009 L 3.21387,-119.222 L 2.88184,-119.555 L 2.66797,-119.972 L 2.59473,-120.435 L 2.66797,-120.899
 L 2.88184,-121.317 L 3.21387,-121.649 L 3.63086,-121.863 L 4.0957,-121.936 L 4.55859,-121.863 L 4.97656,-121.649
 L 5.30859,-121.317 L 5.52148,-120.899 L 5.59473,-120.435 L 5.52148,-119.972 L 5.30859,-119.555 L 4.97656,-119.222
 L 4.55859,-119.009 L 4.0957,-118.936 z
M 87.832,-119.009 L 87.4141,-119.222 L 87.082,-119.555 L 86.8701,-119.972 L 86.7969,-120.435 L 86.8701,-120.899
 L 87.082,-121.317 L 87.4141,-121.649 L 87.832,-121.863 L 88.2969,-121.936 L 88.7598,-121.863 L 89.1768,-121.649
 L 89.5088,-121.317 L 89.7227,-120.899 L 89.7969,-120.435 L 89.7227,-119.972 L 89.5088,-119.555 L 89.1768,-119.222
 L 88.7598,-119.009 L 88.2969,-118.936 z
M 10.6191,-102.911 L 10.6191,-116.911 L 24.6201,-116.911 L 24.6201,-102.911 z
M 29.6709,-102.911 L 29.6709,-116.911 L 43.6699,-116.911 L 43.6699,-102.911 z
M 48.7207,-102.911 L 48.7207,-116.911 L 62.7197,-116.911 L 62.7197,-102.911 z
M 67.7705,-102.911 L 67.7705,-116.911 L 81.7695,-116.911 L 81.7695,-102.911 z
M 10.6191,-83.8604 L 10.6191,-97.8604 L 24.6201,-97.8604 L 24.6201,-83.8604 z
M 29.6709,-83.8604 L 29.6709,-97.8604 L 43.6699,-97.8604 L 43.6699,-83.8604 z
M 48.7207,-83.8604 L 48.7207,-97.8604 L 62.7197,-97.8604 L 62.7197,-83.8604 z
M 67.7705,-83.8604 L 67.7705,-97.8604 L 81.7695,-97.8604 L 81.7695,-83.8604 z
M 10.6191,-64.8105 L 10.6191,-78.8096 L 24.6201,-78.8096 L 24.6201,-64.8105 z
M 29.6709,-64.8105 L 29.6709,-78.8096 L 43.6699,-78.8096 L 43.6699,-64.8105 z
M 48.7207,-64.8105 L 48.7207,-78.8096 L 62.7197,-78.8096 L 62.7197,-64.8105 z
M 67.7705,-64.8105 L 67.7705,-78.8096 L 81.7695,-78.8096 L 81.7695,-64.8105 z
M 87.832,-60.8584 L 87.4141,-61.0703 L 87.082,-61.4023 L 86.8701,-61.8213 L 86.7969,-62.2852 L 86.8701,-62.749
 L 87.082,-63.167 L 87.4141,-63.499 L 87.832,-63.7119 L 88.2969,-63.7852 L 88.7598,-63.7119 L 89.1768,-63.499
 L 89.5088,-63.167 L 89.7227,-62.749 L 89.7969,-62.2852 L 89.7227,-61.8213 L 89.5088,-61.4023 L 89.1768,-61.0703
 L 88.7598,-60.8584 L 88.2969,-60.7852 z
M 3.63086,-60.8584 L 3.21387,-61.0703 L 2.88184,-61.4023 L 2.66797,-61.8213 L 2.59473,-62.2852 L 2.66797,-62.749
 L 2.88184,-63.167 L 3.21387,-63.499 L 3.63086,-63.7119 L 4.0957,-63.7852 L 4.55859,-63.7119 L 4.97656,-63.499
 L 5.30859,-63.167 L 5.52148,-62.749 L 5.59473,-62.2852 L 5.52148,-61.8213 L 5.30859,-61.4023 L 4.97656,-61.0703
 L 4.55859,-60.8584 L 4.0957,-60.7852 z
M 10.6191,-45.7607 L 10.6191,-59.7598 L 24.6201,-59.7598 L 24.6201,-45.7607 z
M 29.6709,-45.7607 L 29.6709,-59.7598 L 43.6699,-59.7598 L 43.6699,-45.7607 z
M 48.7207,-45.7607 L 48.7207,-59.7598 L 62.7197,-59.7598 L 62.7197,-45.7607 z
M 67.7705,-45.7607 L 67.7705,-59.7598 L 81.7695,-59.7598 L 81.7695,-45.7607 z
M 10.6191,-26.7109 L 10.6191,-40.71 L 24.6201,-40.71 L 24.6201,-26.7109 z
M 29.6709,-26.7109 L 29.6709,-40.71 L 43.6699,-40.71 L 43.6699,-26.7109 z
M 48.7207,-26.7109 L 48.7207,-40.71 L 62.7197,-40.71 L 62.7197,-26.7109 z
M 67.7705,-26.7109 L 67.7705,-40.71 L 81.7695,-40.71 L 81.7695,-26.7109 z
M 10.6191,-7.66016 L 10.6191,-21.6611 L 24.6201,-21.6611 L 24.6201,-7.66016 z
M 29.6709,-7.66016 L 29.6709,-21.6611 L 43.6699,-21.6611 L 43.6699,-7.66016 z
M 48.7207,-7.66016 L 48.7207,-21.6611 L 62.7197,-21.6611 L 62.7197,-7.66016 z
M 67.7705,-7.66016 L 67.7705,-21.6611 L 81.7695,-21.6611 L 81.7695,-7.66016 z
M 3.63086,-2.70801 L 3.21387,-2.92188 L 2.88184,-3.25391 L 2.66797,-3.6709 L 2.59473,-4.13574 L 2.66797,-4.59863
 L 2.88184,-5.01562 L 3.21387,-5.34863 L 3.63086,-5.56055 L 4.0957,-5.63477 L 4.55859,-5.56055 L 4.97656,-5.34863
 L 5.30859,-5.01562 L 5.52148,-4.59863 L 5.59473,-4.13574 L 5.52148,-3.6709 L 5.30859,-3.25391 L 4.97656,-2.92188
 L 4.55859,-2.70801 L 4.0957,-2.63477 z
M 87.832,-2.70801 L 87.4141,-2.92188 L 87.082,-3.25391 L 86.8701,-3.6709 L 86.7969,-4.13574 L 86.8701,-4.59863
 L 87.082,-5.01562 L 87.4141,-5.34863 L 87.832,-5.56055 L 88.2969,-5.63477 L 88.7598,-5.56055 L 89.1768,-5.34863
 L 89.5088,-5.01562 L 89.7227,-4.59863 L 89.7969,-4.13574 L 89.7227,-3.6709 L 89.5088,-3.25391 L 89.1768,-2.92188
 L 88.7598,-2.70801 L 88.2969,-2.63477 z
" stroke="black" fill="lightgray" stroke-width="0.5"/>
</svg>
