<?xml version="1.0"?>
<!-- Generated by SVGo -->
<svg width="102.202mm" height="134.301mm"
     viewBox="0.000 0.000 102.202 134.301"
     xmlns="http://www.w3.org/2000/svg" 
     xmlns:xlink="http://www.w3.org/1999/xlink">
<polygon points="94.202,5.001 94.437,5.010 94.671,5.037 94.902,5.083 95.129,5.147 95.350,5.229 95.563,5.327 95.769,5.443 95.965,5.573 96.150,5.719 96.323,5.879 96.483,6.052 96.629,6.237 96.759,6.433 96.875,6.639 96.973,6.852 97.055,7.073 97.119,7.300 97.165,7.531 97.192,7.765 97.202,8.001 97.202,126.301 97.192,126.537 97.165,126.771 97.119,127.002 97.055,127.229 96.973,127.450 96.875,127.663 96.759,127.869 96.629,128.065 96.483,128.250 96.323,128.423 96.150,128.583 95.965,128.729 95.769,128.859 95.563,128.974 95.350,129.073 95.129,129.155 94.902,129.218 94.671,129.265 94.437,129.292 94.201,129.301 8.001,129.301 7.765,129.292 7.531,129.265 7.300,129.218 7.073,129.155 6.852,129.073 6.639,128.974 6.433,128.859 6.237,128.729 6.052,128.583 5.879,128.423 5.719,128.250 5.573,128.065 5.443,127.869 5.327,127.663 5.229,127.450 5.147,127.229 5.083,127.002 5.037,126.771 5.010,126.537 5.000,126.301 5.001,8.001 5.010,7.765 5.037,7.531 5.083,7.300 5.147,7.073 5.229,6.852 5.327,6.639 5.443,6.433 5.573,6.237 5.719,6.052 5.879,5.879 6.052,5.719 6.237,5.573 6.433,5.443 6.639,5.327 6.852,5.229 7.073,5.147 7.300,5.083 7.531,5.037 7.765,5.010 8.001,5.000" style="fill:none;stroke-width:0.050000mm;stroke:black"/>
<polygon points="92.738,123.875 92.320,124.088 91.988,124.420 91.775,124.838 91.702,125.301 91.775,125.765 91.988,126.183 92.320,126.515 92.738,126.728 93.202,126.801 93.665,126.728 94.083,126.515 94.415,126.183 94.628,125.765 94.702,125.301 94.628,124.838 94.415,124.420 94.083,124.088 93.665,123.875 93.202,123.801" style="fill:none;stroke-width:0.050000mm;stroke:black"/>
<polygon points="8.537,123.875 8.119,124.088 7.787,124.420 7.574,124.838 7.500,125.301 7.574,125.765 7.787,126.183 8.119,126.515 8.537,126.728 9.001,126.801 9.464,126.728 9.882,126.515 10.214,126.183 10.427,125.765 10.501,125.301 10.427,124.838 10.214,124.420 9.882,124.088 9.464,123.875 9.001,123.801" style="fill:none;stroke-width:0.050000mm;stroke:black"/>
<polygon points="72.676,107.775 72.676,121.775 86.676,121.775 86.676,107.775" style="fill:none;stroke-width:0.050000mm;stroke:black"/>
<polygon points="53.626,107.775 53.626,121.775 67.626,121.775 67.626,107.775" style="fill:none;stroke-width:0.050000mm;stroke:black"/>
<polygon points="34.576,107.775 34.576,121.775 48.576,121.775 48.576,107.775" style="fill:none;stroke-width:0.050000mm;stroke:black"/>
<polygon points="15.525,107.775 15.525,121.775 29.526,121.775 29.526,107.775" style="fill:none;stroke-width:0.050000mm;stroke:black"/>
<polygon points="72.676,88.726 72.676,102.726 86.676,102.726 86.676,88.726" style="fill:none;stroke-width:0.050000mm;stroke:black"/>
<polygon points="53.626,88.726 53.626,102.726 67.626,102.726 67.626,88.726" style="fill:none;stroke-width:0.050000mm;stroke:black"/>
<polygon points="34.576,88.726 34.576,102.726 48.576,102.726 48.576,88.726" style="fill:none;stroke-width:0.050000mm;stroke:black"/>
<polygon points="15.525,88.726 15.525,102.726 29.526,102.726 29.526,88.726" style="fill:none;stroke-width:0.050000mm;stroke:black"/>
<polygon points="72.676,69.676 72.676,83.676 86.676,83.676 86.676,69.676" style="fill:none;stroke-width:0.050000mm;stroke:black"/>
<polygon points="53.626,69.676 53.626,83.676 67.626,83.676 67.626,69.676" style="fill:none;stroke-width:0.050000mm;stroke:black"/>
<polygon points="34.576,69.676 34.576,83.676 48.576,83.676 48.576,69.676" style="fill:none;stroke-width:0.050000mm;stroke:black"/>
<polygon points="15.525,69.676 15.525,83.676 29.526,83.676 29.526,69.676" style="fill:none;stroke-width:0.050000mm;stroke:black"/>
<polygon points="92.738,65.724 92.320,65.937 91.988,66.269 91.775,66.687 91.702,67.151 91.775,67.615 91.988,68.033 92.320,68.365 92.738,68.578 93.202,68.651 93.665,68.578 94.083,68.365 94.415,68.033 94.628,67.615 94.702,67.151 94.628,66.687 94.415,66.269 94.083,65.937 93.665,65.724 93.202,65.651" style="fill:none;stroke-width:0.050000mm;stroke:black"/>
<polygon points="8.537,65.724 8.119,65.937 7.787,66.269 7.574,66.687 7.500,67.151 7.574,67.615 7.787,68.033 8.119,68.365 8.537,68.578 9.001,68.651 9.464,68.578 9.882,68.365 10.214,68.033 10.427,67.615 10.501,67.151 10.427,66.687 10.214,66.269 9.882,65.937 9.464,65.724 9.001,65.651" style="fill:none;stroke-width:0.050000mm;stroke:black"/>
<polygon points="72.676,50.626 72.676,64.626 86.676,64.626 86.676,50.626" style="fill:none;stroke-width:0.050000mm;stroke:black"/>
<polygon points="53.626,50.626 53.626,64.626 67.626,64.626 67.626,50.626" style="fill:none;stroke-width:0.050000mm;stroke:black"/>
<polygon points="34.576,50.626 34.576,64.626 48.576,64.626 48.576,50.626" style="fill:none;stroke-width:0.050000mm;stroke:black"/>
<polygon points="15.525,50.626 15.525,64.626 29.526,64.626 29.526,50.626" style="fill:none;stroke-width:0.050000mm;stroke:black"/>
<polygon points="72.676,31.576 72.676,45.576 86.676,45.576 86.676,31.576" style="fill:none;stroke-width:0.050000mm;stroke:black"/>
<polygon points="53.626,31.576 53.626,45.576 67.626,45.576 67.626,31.576" style="fill:none;stroke-width:0.050000mm;stroke:black"/>
<polygon points="34.576,31.576 34.576,45.576 48.576,45.576 48.576,31.576" style="fill:none;stroke-width:0.050000mm;stroke:black"/>
<polygon points="15.525,31.576 15.525,45.576 29.526,45.576 29.526,31.576" style="fill:none;stroke-width:0.050000mm;stroke:black"/>
<polygon points="72.676,12.525 72.676,26.526 86.676,26.526 86.676,12.525" style="fill:none;stroke-width:0.050000mm;stroke:black"/>
<polygon points="53.626,12.525 53.626,26.526 67.626,26.526 67.626,12.525" style="fill:none;stroke-width:0.050000mm;stroke:black"/>
<polygon points="34.576,12.525 34.576,26.526 48.576,26.526 48.576,12.525" style="fill:none;stroke-width:0.050000mm;stroke:black"/>
<polygon points="15.525,12.525 15.525,26.526 29.526,26.526 29.526,12.525" style="fill:none;stroke-width:0.050000mm;stroke:black"/>
<polygon points="92.738,7.574 92.320,7.787 91.988,8.119 91.775,8.537 91.702,9.001 91.775,9.464 91.988,9.882 92.320,10.214 92.738,10.427 93.202,10.501 93.665,10.427 94.083,10.214 94.415,9.882 94.628,9.464 94.702,9.001 94.628,8.537 94.415,8.119 94.083,7.787 93.665,7.574 93.202,7.501" style="fill:none;stroke-width:0.050000mm;stroke:black"/>
<polygon points="8.537,7.574 8.119,7.787 7.787,8.119 7.574,8.537 7.500,9.001 7.574,9.464 7.787,9.882 8.119,10.214 8.537,10.427 9.001,10.501 9.464,10.427 9.882,10.214 10.214,9.882 10.427,9.464 10.501,9.001 10.427,8.537 10.214,8.119 9.882,7.787 9.464,7.574 9.001,7.501" style="fill:none;stroke-width:0.050000mm;stroke:black"/>
</svg>
